<svg height="50" viewBox="0 0 16 16" width="50" xmlns="http://www.w3.org/2000/svg"><path d="m0 0h16v16h-16z" fill="none"/><path d="m0 10.111c0 .925.756 1.681 1.681 1.681s1.681-.756 1.681-1.681v-1.681h-1.681c-.925 0-1.681.756-1.681 1.681zm16-4.222c0-.925-.756-1.681-1.681-1.681s-1.681.756-1.681 1.681v1.681h1.681c.925 0 1.681-.756 1.681-1.681zm-5.889 1.681c.925 0 1.681-.756 1.681-1.681v-4.208c0-.925-.756-1.681-1.681-1.681s-1.681.756-1.681 1.681v4.208c0 .925.756 1.681 1.681 1.681zm-4.222.86c-.925 0-1.681.756-1.681 1.681v4.208c0 .925.756 1.681 1.681 1.681s1.681-.756 1.681-1.681v-4.208c0-.925-.756-1.681-1.681-1.681zm0-4.222h-4.208c-.925 0-1.681.756-1.681 1.681s.756 1.681 1.681 1.681h4.208c.925 0 1.681-.756 1.681-1.681s-.756-1.681-1.681-1.681zm0-4.208c-.925 0-1.681.756-1.681 1.681s.756 1.681 1.681 1.681h1.681v-1.681c0-.925-.756-1.681-1.681-1.681zm8.43 8.43h-4.208c-.925 0-1.681.756-1.681 1.681s.756 1.681 1.681 1.681h4.208c.925 0 1.681-.756 1.681-1.681s-.756-1.681-1.681-1.681zm-4.208 4.208h-1.681v1.681c0 .925.756 1.681 1.681 1.681s1.681-.756 1.681-1.681-.756-1.681-1.681-1.681z"/></svg>